<svg width="20" height="20" viewBox="0 0 20 20" fill="none" xmlns="http://www.w3.org/2000/svg">
<path d="M10.0001 15.8333C9.01427 15.8333 8.0876 15.4491 7.39093 14.7525L4.1226 11.525C3.63093 11.04 3.62593 10.2483 4.11093 9.75747C4.59677 9.2658 5.3876 9.26164 5.87843 9.7458L9.1526 12.9791C9.61427 13.4408 10.3926 13.4341 10.8409 12.985L14.1226 9.7458C14.6126 9.2608 15.4059 9.26497 15.8901 9.75747C16.3751 10.2483 16.3701 11.04 15.8784 11.525L12.6034 14.7583C11.9126 15.45 10.9868 15.8333 10.0001 15.8333ZM10.8851 10.4675L15.8843 5.46747C16.3726 4.97914 16.3726 4.18747 15.8843 3.69997C15.3959 3.21164 14.6051 3.21164 14.1168 3.69997L10.0018 7.8158L5.88427 3.69914C5.39593 3.2108 4.60427 3.2108 4.11676 3.69914C3.62843 4.18747 3.62843 4.97914 4.11676 5.46664L9.1176 10.4666C9.35177 10.7008 9.6701 10.8325 10.0018 10.8325C10.3334 10.8325 10.6509 10.7008 10.8859 10.4666L10.8851 10.4675Z" fill="currentColor"/>
</svg>
