<svg width="20" height="20" viewBox="0 0 20 20" fill="none" xmlns="http://www.w3.org/2000/svg">
<path d="M15.0001 16.6666C14.6801 16.6666 14.3601 16.545 14.1159 16.3008L10.0009 12.185L5.88422 16.3008C5.39589 16.7891 4.60506 16.7891 4.11672 16.3008C3.62839 15.8125 3.62839 15.0208 4.11672 14.5333L9.11756 9.53329C9.35172 9.29913 9.67006 9.16746 10.0017 9.16746C10.3326 9.16746 10.6509 9.29913 10.8859 9.53329L15.8851 14.5333C16.3734 15.0216 16.3734 15.8133 15.8851 16.3008C15.6409 16.545 15.3201 16.6666 15.0001 16.6666ZM15.8892 10.2433C16.3742 9.75246 16.3692 8.96079 15.8776 8.47579L12.6092 5.24829C11.9117 4.55079 10.9859 4.16663 9.99922 4.16663C9.01256 4.16663 8.08672 4.55079 7.39589 5.24246L4.12089 8.47579C3.62922 8.96079 3.62422 9.75246 4.10922 10.2433C4.59339 10.735 5.38672 10.7391 5.87672 10.255L9.15839 7.01579C9.60589 6.56663 10.3859 6.56079 10.8459 7.02163L14.1209 10.255C14.3642 10.4958 14.6817 10.6158 14.9992 10.6158C15.3217 10.6158 15.6442 10.4916 15.8884 10.2441L15.8892 10.2433Z" fill="currentColor"/>
</svg>
