<svg width="20" height="20" viewBox="0 0 20 20" fill="none" xmlns="http://www.w3.org/2000/svg">
<g clip-path="url(#clip0_116_2237)">
<path d="M19.3824 13.5L17.2158 5.69081C16.7531 4.02033 15.745 2.5526 14.3518 1.52122C12.9587 0.489841 11.2606 -0.045916 9.52782 -0.000782941C7.79504 0.0443501 6.12714 0.66778 4.78958 1.77028C3.45202 2.87279 2.52167 4.39101 2.1466 6.08331L0.470763 13.625C0.389673 13.9903 0.391651 14.3693 0.476551 14.7338C0.56145 15.0983 0.727104 15.4391 0.961292 15.731C1.19548 16.0229 1.49222 16.2586 1.82963 16.4205C2.16704 16.5824 2.5365 16.6666 2.91076 16.6666H5.9166C6.10786 17.6086 6.61887 18.4554 7.36305 19.0636C8.10722 19.6719 9.0388 20.0042 9.99993 20.0042C10.9611 20.0042 11.8926 19.6719 12.6368 19.0636C13.381 18.4554 13.892 17.6086 14.0833 16.6666H16.9749C17.36 16.6665 17.7399 16.5773 18.0848 16.4062C18.4298 16.2351 18.7306 15.9865 18.9637 15.68C19.1968 15.3735 19.356 15.0173 19.4287 14.6391C19.5015 14.261 19.4851 13.8711 19.3824 13.5ZM9.99993 18.3333C9.48471 18.3312 8.98274 18.1699 8.56268 17.8716C8.14262 17.5732 7.825 17.1524 7.65326 16.6666H12.3466C12.1749 17.1524 11.8572 17.5732 11.4372 17.8716C11.0171 18.1699 10.5151 18.3312 9.99993 18.3333ZM17.6374 14.6708C17.5597 14.7739 17.4589 14.8573 17.3431 14.9145C17.2274 14.9716 17.0999 15.0009 16.9708 15H2.91076C2.78598 15 2.6628 14.9719 2.5503 14.9179C2.43781 14.8639 2.33888 14.7854 2.26081 14.688C2.18274 14.5907 2.12753 14.477 2.09925 14.3555C2.07097 14.234 2.07035 14.1076 2.09743 13.9858L3.77326 6.44415C4.06856 5.11599 4.79935 3.92465 5.84948 3.05952C6.8996 2.19439 8.20878 1.70512 9.56891 1.66949C10.929 1.63386 12.262 2.05391 13.356 2.86287C14.45 3.67183 15.2422 4.82327 15.6066 6.13415L17.7733 13.9433C17.8086 14.0668 17.8148 14.1968 17.7912 14.3231C17.7676 14.4494 17.715 14.5684 17.6374 14.6708Z" fill="currentColor"/>
</g>
<defs>
<clipPath id="clip0_116_2237">
<rect width="20" height="20" fill="white"/>
</clipPath>
</defs>
</svg>
