<svg width="512" height="512" viewBox="0 0 512 512" fill="none" xmlns="http://www.w3.org/2000/svg">
<g clip-path="url(#clip0_1264_1943)">
<path d="M505.749 36.4165L390.443 151.723L442.987 204.267C453.781 215.062 445.952 233.664 430.613 233.771L294.464 234.667C284.949 234.731 277.269 227.072 277.333 217.536L278.229 81.3871C278.336 66.0271 296.939 58.2191 307.733 69.0138L360.277 121.558L475.584 6.25112C483.925 -2.09022 497.408 -2.09022 505.749 6.25112C514.091 14.5925 514.091 28.0751 505.749 36.4165ZM217.536 277.334L81.3866 278.23C66.0266 278.336 58.2186 296.939 69.0133 307.734L121.557 360.278L6.25063 475.584C-2.0907 483.926 -2.0907 497.409 6.25063 505.75C10.4106 509.91 15.872 512.001 21.3333 512.001C26.7946 512.001 32.256 509.91 36.416 505.75L151.723 390.443L204.267 442.987C215.061 453.782 233.664 445.974 233.771 430.614L234.667 294.464C234.731 284.95 227.072 277.27 217.536 277.334Z" fill="black"/>
</g>
<defs>
<clipPath id="clip0_1264_1943">
<rect width="512" height="512" fill="white"/>
</clipPath>
</defs>
</svg>
