<svg width="20" height="20" viewBox="0 0 20 20" fill="none" xmlns="http://www.w3.org/2000/svg">
<g clip-path="url(#clip0_153_1890)">
<path d="M19.3925 7.84919C18.1 5.74419 15.16 2.21252 10 2.21252C4.84004 2.21252 1.90004 5.74419 0.607543 7.84919C0.207983 8.49545 -0.00366211 9.24023 -0.00366211 10C-0.00366211 10.7598 0.207983 11.5046 0.607543 12.1509C1.90004 14.2559 4.84004 17.7875 10 17.7875C15.16 17.7875 18.1 14.2559 19.3925 12.1509C19.7921 11.5046 20.0037 10.7598 20.0037 10C20.0037 9.24023 19.7921 8.49545 19.3925 7.84919ZM17.9717 11.2784C16.8617 13.0834 14.3492 16.1209 10 16.1209C5.65088 16.1209 3.13838 13.0834 2.02838 11.2784C1.79099 10.8942 1.66525 10.4516 1.66525 10C1.66525 9.54846 1.79099 9.10582 2.02838 8.72169C3.13838 6.91669 5.65088 3.87919 10 3.87919C14.3492 3.87919 16.8617 6.91336 17.9717 8.72169C18.2091 9.10582 18.3348 9.54846 18.3348 10C18.3348 10.4516 18.2091 10.8942 17.9717 11.2784Z" fill="currentColor"/>
<path d="M9.99992 5.83337C9.17583 5.83337 8.37025 6.07774 7.68504 6.53558C6.99984 6.99342 6.46579 7.64417 6.15042 8.40553C5.83506 9.16689 5.75254 10.0047 5.91332 10.8129C6.07409 11.6212 6.47092 12.3636 7.05364 12.9463C7.63636 13.529 8.37879 13.9259 9.18704 14.0866C9.9953 14.2474 10.8331 14.1649 11.5944 13.8495C12.3558 13.5342 13.0065 13.0001 13.4644 12.3149C13.9222 11.6297 14.1666 10.8241 14.1666 10C14.1653 8.89538 13.7259 7.83634 12.9447 7.05522C12.1636 6.27411 11.1046 5.8347 9.99992 5.83337ZM9.99992 12.5C9.50547 12.5 9.02212 12.3534 8.61099 12.0787C8.19987 11.804 7.87944 11.4136 7.69022 10.9567C7.501 10.4999 7.45149 9.99727 7.54796 9.51232C7.64442 9.02736 7.88252 8.5819 8.23215 8.23227C8.58178 7.88264 9.02724 7.64454 9.51219 7.54808C9.99715 7.45161 10.4998 7.50112 10.9566 7.69034C11.4134 7.87956 11.8039 8.19999 12.0786 8.61112C12.3533 9.02224 12.4999 9.50559 12.4999 10C12.4999 10.6631 12.2365 11.299 11.7677 11.7678C11.2988 12.2366 10.663 12.5 9.99992 12.5Z" fill="currentColor"/>
</g>
<defs>
<clipPath id="clip0_153_1890">
<rect width="20" height="20" fill="white"/>
</clipPath>
</defs>
</svg>
