<svg width="20" height="20" viewBox="0 0 20 20" fill="none" xmlns="http://www.w3.org/2000/svg">
<g clip-path="url(#clip0_116_2255)">
<path d="M15.8333 2.50004H10.3933C10.2645 2.50089 10.1371 2.47239 10.0208 2.41671L7.39083 1.09671C7.04366 0.923828 6.66117 0.833696 6.27333 0.833374H4.16667C3.062 0.834697 2.00296 1.27411 1.22185 2.05522C0.440735 2.83634 0.00132321 3.89538 0 5.00004L0 15C0.00132321 16.1047 0.440735 17.1637 1.22185 17.9449C2.00296 18.726 3.062 19.1654 4.16667 19.1667H15.8333C16.938 19.1654 17.997 18.726 18.7782 17.9449C19.5593 17.1637 19.9987 16.1047 20 15V6.66671C19.9987 5.56205 19.5593 4.50301 18.7782 3.72189C17.997 2.94078 16.938 2.50136 15.8333 2.50004ZM4.16667 2.50004H6.27333C6.40222 2.49919 6.5296 2.52769 6.64583 2.58337L9.27583 3.89921C9.62266 4.07353 10.0052 4.16509 10.3933 4.16671H15.8333C16.3317 4.16752 16.8184 4.31727 17.2311 4.59672C17.6437 4.87617 17.9634 5.27257 18.1492 5.73504L1.66667 5.82837V5.00004C1.66667 4.337 1.93006 3.70111 2.3989 3.23227C2.86774 2.76343 3.50363 2.50004 4.16667 2.50004ZM15.8333 17.5H4.16667C3.50363 17.5 2.86774 17.2367 2.3989 16.7678C1.93006 16.299 1.66667 15.6631 1.66667 15V7.49504L18.3333 7.40087V15C18.3333 15.6631 18.0699 16.299 17.6011 16.7678C17.1323 17.2367 16.4964 17.5 15.8333 17.5Z" fill="currentColor"/>
</g>
<defs>
<clipPath id="clip0_116_2255">
<rect width="20" height="20" fill="white"/>
</clipPath>
</defs>
</svg>
