<svg width="19" height="18" viewBox="0 0 19 18" fill="none" xmlns="http://www.w3.org/2000/svg">
<g clip-path="url(#clip0_153_1920)">
<path d="M18.5 9C18.5 4.02944 14.4706 0 9.5 0C4.52944 0 0.5 4.02944 0.5 9C0.5 13.9706 4.52944 18 9.5 18C14.4706 18 18.5 13.9706 18.5 9Z" fill="#FFE812"/>
<path d="M9.5 2C5.08169 2 1.5 4.82406 1.5 8.30765C1.5 10.5599 2.99738 12.5361 5.24985 13.652C5.12731 14.0746 4.46238 16.3707 4.43592 16.5511C4.43592 16.5511 4.42 16.6867 4.50777 16.7384C4.59554 16.79 4.69877 16.7499 4.69877 16.7499C4.95046 16.7147 7.61746 14.8414 8.07908 14.5161C8.54023 14.5814 9.01508 14.6153 9.5 14.6153C13.9183 14.6153 17.5 11.7913 17.5 8.30765C17.5 4.82406 13.9183 2 9.5 2Z" fill="#131518"/>
</g>
<defs>
<clipPath id="clip0_153_1920">
<rect width="19" height="18" fill="white"/>
</clipPath>
</defs>
</svg>
