<svg width="20" height="20" viewBox="0 0 20 20" fill="none" xmlns="http://www.w3.org/2000/svg">
<path d="M19.2334 12.775L12.5 2.14171C11.9334 1.32504 10.9917 0.833374 10 0.833374C9.00837 0.833374 8.06671 1.31671 7.47504 2.16671L0.77504 12.7584C-0.0749603 13.975 -0.233294 15.4334 0.358373 16.5584C0.941706 17.6834 2.16671 18.325 3.70004 18.325H16.3C17.8417 18.325 19.0584 17.6834 19.6417 16.5584C20.225 15.4334 20.0667 13.9834 19.2334 12.775ZM9.16671 5.83337C9.16671 5.37504 9.54171 5.00004 10 5.00004C10.4584 5.00004 10.8334 5.37504 10.8334 5.83337V10.8334C10.8334 11.2917 10.4584 11.6667 10 11.6667C9.54171 11.6667 9.16671 11.2917 9.16671 10.8334V5.83337ZM10 15.8334C9.30837 15.8334 8.75004 15.275 8.75004 14.5834C8.75004 13.8917 9.30837 13.3334 10 13.3334C10.6917 13.3334 11.25 13.8917 11.25 14.5834C11.25 15.275 10.6917 15.8334 10 15.8334Z" fill="currentColor"/>
</svg>
